<svg width="85" height="30" viewBox="0 0 85 30" fill="none" xmlns="http://www.w3.org/2000/svg">
<path d="M13.4263 27.5H22.206C29.5224 27.5 32.4489 25 32.4489 18.75V11.25C32.4489 5 29.5224 2.5 22.206 2.5H13.4263C6.10985 2.5 3.18329 5 3.18329 11.25V18.75C3.18329 25 6.10985 27.5 13.4263 27.5Z" fill="#D0D6E2"/>
<path d="M19.1477 9.7997L11.5532 16.2872C11.2606 16.5372 10.9825 17.0247 10.924 17.3747L10.5143 19.8497C10.368 20.7497 11.0996 21.3747 12.1532 21.2497L15.0504 20.8997C15.4602 20.8497 16.0309 20.6122 16.3235 20.3622L23.918 13.8747C25.2203 12.7622 25.8495 11.4622 23.918 9.8122C21.9864 8.1497 20.4646 8.6747 19.1477 9.7997Z" stroke="#9E090F" stroke-width="1.5" stroke-miterlimit="10" stroke-linecap="round" stroke-linejoin="round"/>
<path d="M18.0648 10.7246C18.7087 12.6871 20.5085 14.2371 22.8205 14.7871" stroke="#9E090F" stroke-width="1.5" stroke-miterlimit="10" stroke-linecap="round" stroke-linejoin="round"/>
<path d="M62.5928 27.5H71.3725C78.6889 27.5 81.6154 25 81.6154 18.75V11.25C81.6154 5 78.6889 2.5 71.3725 2.5H62.5928C55.2764 2.5 52.3498 5 52.3498 11.25V18.75C52.3498 25 55.2764 27.5 62.5928 27.5Z" fill="#D0D6E2"/>
<path d="M69.3159 19.3163H70.4943C73.2466 19.3163 75.5219 17.4038 75.5219 14.9997C75.5219 12.5955 73.2466 10.683 70.4943 10.683H69.3237C68.9347 10.683 68.5884 10.9567 68.5884 11.333C68.5884 11.7105 68.9439 11.983 69.3237 11.983H70.4943C72.4792 11.983 74.0513 13.3571 74.0513 14.9997C74.0513 16.6422 72.4792 18.0163 70.4943 18.0163H69.3159C68.9361 18.0163 68.5806 18.2889 68.5806 18.6663C68.5806 19.0438 68.9361 19.3163 69.3159 19.3163Z" fill="#9E090F" stroke="#9E090F" stroke-width="0.3"/>
<path d="M63.4706 19.3163H64.6412C65.021 19.3163 65.3765 19.0438 65.3765 18.6663C65.3765 18.2889 65.021 18.0163 64.6412 18.0163H63.4706C61.4857 18.0163 59.9136 16.6422 59.9136 14.9997C59.9136 13.3571 61.4857 11.983 63.4706 11.983H64.6412C65.021 11.983 65.3765 11.7105 65.3765 11.333C65.3765 10.9555 65.021 10.683 64.6412 10.683H63.4706C60.7183 10.683 58.443 12.5955 58.443 14.9997C58.443 17.4038 60.7183 19.3163 63.4706 19.3163Z" fill="#9E090F" stroke="#9E090F" stroke-width="0.3"/>
<path d="M63.8608 15.65H70.1041C70.4839 15.65 70.8394 15.3775 70.8394 15C70.8394 14.6225 70.4839 14.35 70.1041 14.35H63.8608C63.481 14.35 63.1255 14.6225 63.1255 15C63.1255 15.3775 63.481 15.65 63.8608 15.65Z" fill="#9E090F" stroke="#9E090F" stroke-width="0.3"/>
</svg>
